<svg width="20" height="21" viewBox="0 0 20 21" fill="none" xmlns="http://www.w3.org/2000/svg">
<g clip-path="url(#clip0_1_1665)">
<path d="M19.299 2.66974C19.2609 2.58996 19.1926 2.52856 19.1093 2.49899L12.195 0.0580765C12.0215 -0.00329841 11.831 0.0878681 11.7697 0.261368L10.199 4.70569H9.51204V3.57236C9.51202 3.41929 9.47686 3.26826 9.40926 3.13092C9.34166 2.99358 9.24343 2.8736 9.12214 2.78021C9.00085 2.68683 8.85974 2.62254 8.70968 2.59229C8.55962 2.56205 8.40462 2.56667 8.25663 2.60578L0.24744 4.71677V4.72277C0.176847 4.74052 0.114146 4.7812 0.0691834 4.83844C0.0242205 4.89568 -0.000457842 4.96624 -0.000976562 5.03902L-0.000976562 19.039C-0.000976562 19.5912 0.446773 20.039 0.999021 20.039H10.3323C10.8846 20.039 11.3323 19.5912 11.3323 19.039V16.0144L14.0057 16.9581C14.1793 17.0193 14.3697 16.9283 14.431 16.7547L19.3133 2.92445C19.3278 2.88314 19.334 2.83937 19.3315 2.79566C19.329 2.75195 19.318 2.70916 19.2989 2.66974H19.299ZM8.42671 3.24861C8.47605 3.23561 8.52772 3.23409 8.57773 3.24417C8.62775 3.25424 8.6748 3.27565 8.71525 3.30674C8.75572 3.3379 8.78849 3.37794 8.81104 3.42377C8.83359 3.4696 8.84531 3.51999 8.8453 3.57107V4.70569H2.90268L8.42671 3.24861ZM10.6657 19.039C10.6657 19.1274 10.6305 19.2122 10.568 19.2747C10.5055 19.3372 10.4207 19.3723 10.3323 19.3723H0.999021C0.910616 19.3723 0.825832 19.3372 0.76332 19.2747C0.700808 19.2122 0.665689 19.1274 0.665689 19.039V5.37236H10.3323C10.4207 5.37236 10.5055 5.40747 10.568 5.46999C10.6305 5.5325 10.6657 5.61728 10.6657 5.70569V19.039ZM13.4057 6.6414L13.8323 6.4391L14.0356 6.8644L12.416 11.448C12.3867 11.5313 12.3916 11.623 12.4297 11.7028L12.7767 12.4287L12.6694 12.733L12.0083 12.0484C11.9725 12.0111 11.9284 11.9825 11.8796 11.9652C11.8309 11.9478 11.7787 11.942 11.7273 11.9483L11.3323 11.9983V11.5517L11.6167 11.4156C11.6964 11.3775 11.7578 11.3094 11.7874 11.2261L12.4541 9.34076L13.4057 6.6414ZM14.0343 8.86631L14.7111 9.95372L14.5953 10.2813L13.7856 9.57239L14.0343 8.86631ZM11.3323 10.512V9.59597L11.6603 9.58231L11.3323 10.512ZM11.8991 8.90539L11.3323 8.92868V8.48497L12.1484 8.20031L11.8991 8.90539ZM13.9131 16.2184L11.3323 15.3073V12.6703L11.6447 12.6313L12.5657 13.584C12.597 13.6159 12.6343 13.6412 12.6755 13.6583C12.7168 13.6755 12.761 13.6842 12.8056 13.684C12.8294 13.6841 12.8531 13.6816 12.8763 13.6763C12.9318 13.6643 12.9833 13.6382 13.0259 13.6006C13.0685 13.5631 13.1007 13.5152 13.1196 13.4617L13.453 12.5186C13.4824 12.4353 13.4775 12.3436 13.4392 12.2641L13.0907 11.539L13.5467 10.2473L14.526 11.1058C14.5868 11.159 14.6649 11.1884 14.7458 11.1884C14.7742 11.1884 14.8026 11.1847 14.8301 11.1773C14.8827 11.1636 14.9312 11.1371 14.9713 11.1003C15.0114 11.0635 15.0419 11.0174 15.0601 10.9661L15.3934 10.0231C15.41 9.97593 15.4159 9.92567 15.4104 9.87599C15.405 9.82632 15.3884 9.7785 15.362 9.7361L14.3187 8.06002L14.7093 6.95377C14.7239 6.91244 14.7302 6.86864 14.7279 6.82487C14.7255 6.7811 14.7146 6.73822 14.6957 6.69869L14.2891 5.84844C14.2702 5.80892 14.2437 5.77351 14.2112 5.74423C14.1786 5.71495 14.1406 5.69237 14.0993 5.67778C14.058 5.6632 14.0142 5.65689 13.9705 5.65922C13.9268 5.66154 13.8839 5.67247 13.8444 5.69136L12.9937 6.0981C12.9542 6.11697 12.9189 6.14342 12.8897 6.17595C12.8605 6.20848 12.8379 6.24645 12.8234 6.28769L12.4323 7.39531L11.3323 7.77902V5.70569C11.3319 5.5351 11.2878 5.36747 11.2041 5.21883C11.1204 5.07019 11 4.94552 10.8543 4.85673L11.3991 3.31199L11.5213 2.96545L12.2881 0.798783L18.5743 3.0177L13.9131 16.2184Z" fill="#034833"/>
<path d="M16.5429 5.12926L16.7648 4.50051L17.3364 4.70218L17.1145 5.33092L16.5429 5.12926ZM11.971 3.51514L12.193 2.8866L12.7644 3.08839L12.5424 3.71697L11.971 3.51514ZM15.3998 4.72576L15.6219 4.09701L16.1933 4.29884L15.9713 4.92743L15.3998 4.72576ZM13.1141 3.9188L13.3361 3.29022L13.9073 3.49205L13.6854 4.12064L13.1141 3.9188ZM14.2569 4.32197L14.479 3.69339L15.0504 3.89522L14.8284 4.52376L14.2569 4.32197ZM5.51204 6.70688C3.67104 6.70688 2.17871 8.19921 2.17871 10.0402C2.17871 11.8812 3.67104 13.3735 5.51204 13.3735C7.35303 13.3735 8.84536 11.8812 8.84536 10.0402C8.84341 8.20021 7.3522 6.70896 5.51204 6.70688ZM7.91907 8.90054L7.46432 8.80063C7.26433 8.7565 7.06424 8.72154 6.86224 8.69125C6.832 8.48947 6.79548 8.28868 6.75274 8.08917L6.65262 7.63459C7.20754 7.89873 7.65471 8.34573 7.91907 8.90054ZM2.84533 10.0402C2.846 9.90396 2.85708 9.76792 2.87871 9.63329L3.70296 9.44987C3.82942 9.42187 3.95671 9.39862 4.08429 9.37662C4.05206 9.81848 4.05206 10.2621 4.08429 10.704C3.95667 10.682 3.82942 10.6585 3.70296 10.6305L2.87871 10.4473C2.85711 10.3127 2.84597 10.1766 2.84538 10.0402H2.84533ZM4.76075 9.28925C5.26039 9.24466 5.76302 9.24466 6.26266 9.28925C6.30742 9.78889 6.30742 10.2915 6.26266 10.7912C5.76301 10.8359 5.26036 10.8359 4.76071 10.7912C4.71595 10.2915 4.71599 9.78889 4.76075 9.28925ZM6.93828 9.37662C7.06603 9.39862 7.19333 9.42187 7.31962 9.44987L8.14399 9.63329C8.19022 9.90265 8.19022 10.1779 8.14399 10.4473L7.31962 10.6305C7.19337 10.6585 7.06603 10.682 6.93828 10.7043C6.97067 10.2623 6.97067 9.81859 6.93828 9.37662ZM5.91874 7.40692L6.10204 8.23163C6.13004 8.35792 6.15362 8.48521 6.17579 8.61296C5.73377 8.58057 5.28997 8.58057 4.84796 8.61296C4.87008 8.48521 4.89337 8.35792 4.92171 8.23163L5.10495 7.40692C5.37429 7.36119 5.64941 7.36119 5.91874 7.40692ZM4.37208 7.63217L4.27196 8.08692C4.228 8.28692 4.193 8.487 4.16275 8.689C3.96097 8.71914 3.76018 8.75554 3.56067 8.79817L3.10592 8.89829C3.37048 8.34396 3.81748 7.89737 4.37204 7.63329L4.37208 7.63217ZM3.10525 11.1789L3.56 11.279C3.76 11.3229 3.95987 11.3579 4.16208 11.3882C4.19222 11.59 4.22862 11.7907 4.27125 11.9902L4.37137 12.4448C3.81652 12.1809 3.36926 11.7343 3.10458 11.1798L3.10525 11.1789ZM5.10525 12.6715L4.92196 11.8468C4.89362 11.7209 4.87037 11.5932 4.84821 11.4658C5.06895 11.482 5.29062 11.4928 5.51229 11.4928C5.73395 11.4928 5.95499 11.482 6.17604 11.4658C6.15391 11.5932 6.13029 11.7208 6.10229 11.8468L5.91904 12.6715C5.6497 12.7173 5.37458 12.7173 5.10525 12.6715ZM6.65191 12.4463L6.75203 11.9915C6.79633 11.7915 6.83099 11.5916 6.86162 11.3895C7.06336 11.3593 7.26413 11.3229 7.46362 11.2803L7.9182 11.1802C7.65407 11.7355 7.20681 12.1829 6.65162 12.4472L6.65191 12.4463ZM2.84538 16.0402H8.1787V16.7069H2.84538V16.0402ZM3.51204 17.3735H7.51203V18.0402H3.51204V17.3735ZM5.1787 14.7069H5.84537V15.3735H5.1787V14.7069ZM3.84537 14.7069H4.51204V15.3735H3.84537V14.7069ZM6.51203 14.7069H7.1787V15.3735H6.51203V14.7069Z" fill="#034833"/>
</g>
<defs>
<clipPath id="clip0_1_1665">
<rect width="20" height="20" fill="white" transform="translate(-0.000976562 0.0390625)"/>
</clipPath>
</defs>
</svg>
