<svg width="55" height="56" viewBox="0 0 55 56" fill="none" xmlns="http://www.w3.org/2000/svg">
<rect x="-0.000976562" y="0.539062" width="55" height="55" rx="27.5" fill="#83CD20"/>
<path d="M35.4678 32.1328L34.7178 35.2891C34.624 35.7578 34.249 36.0703 33.7803 36.0703C25.9053 36.0391 19.499 29.6328 19.499 21.7578C19.499 21.2891 19.7803 20.9141 20.249 20.8203L23.4053 20.0703C23.8428 19.9766 24.3115 20.2266 24.499 20.6328L25.9678 24.0391C26.124 24.4453 26.0303 24.9141 25.6865 25.1641L23.999 26.5391C25.0615 28.6953 26.8115 30.4453 28.999 31.5078L30.374 29.8203C30.624 29.5078 31.0928 29.3828 31.499 29.5391L34.9053 31.0078C35.3115 31.2266 35.5615 31.6953 35.4678 32.1328Z" fill="white"/>
</svg>
